<?xml version="1.0" encoding="utf-8"?>
<!-- Generator: Adobe Illustrator 24.3.0, SVG Export Plug-In . SVG Version: 6.00 Build 0)  -->
<svg version="1.1" id="Layer_1" xmlns="http://www.w3.org/2000/svg" xmlns:xlink="http://www.w3.org/1999/xlink" x="0px" y="0px"
	 viewBox="0 0 400 400" style="enable-background:new 0 0 400 400;" xml:space="preserve">
<style type="text/css">
	.st0{fill:#FFFFFF;}
</style>
<g>
	<path class="st0" d="M365,201c0,90.6-73.4,164-164,164c-90.6,0-164-73.4-164-164c0-90.6,73.4-164,164-164
		C291.6,37,365,110.4,365,201"/>
	<path d="M359,201c0,87.2-70.7,158-158,158C113.8,359,43,288.2,43,201C43,113.8,113.8,43,201,43C288.2,43,359,113.8,359,201"/>
	<g>
		<polygon class="st0" points="67.4,227.9 70.7,238.2 81.6,238.2 72.7,244.7 76,254.8 67.4,248.6 58.8,254.8 62,244.7 53.1,238.2 
			64.1,238.2 		"/>
		<polygon class="st0" points="334.7,227.9 337.9,238.2 348.9,238.2 340,244.7 343.2,254.8 334.7,248.6 326,254.8 329.3,244.7 
			320.4,238.2 331.3,238.2 		"/>
		<polygon class="st0" points="105.8,283.1 109,293.4 120,293.4 111.1,299.9 114.3,310 105.8,303.8 97.1,310 100.4,299.9 
			91.5,293.4 102.4,293.4 		"/>
		<polygon class="st0" points="299.9,283.1 303.1,293.4 314.1,293.4 305.2,299.9 308.4,310 299.9,303.8 291.2,310 294.5,299.9 
			285.6,293.4 296.5,293.4 		"/>
		<polygon class="st0" points="165.6,319.1 168.9,329.4 179.8,329.4 170.9,335.9 174.2,346 165.6,339.8 157,346 160.2,335.8 
			151.3,329.4 162.3,329.4 		"/>
		<polygon class="st0" points="238.4,319.1 241.6,329.4 252.5,329.4 243.7,335.9 246.9,346 238.4,339.8 229.7,346 233,335.8 
			224.1,329.4 235,329.4 		"/>
	</g>
	<path class="st0" d="M319.4,201.8c0,65.4-53,118.4-118.4,118.4c-65.4,0-118.4-53-118.4-118.4c0-65.4,53-118.4,118.4-118.4
		C266.4,83.3,319.4,136.3,319.4,201.8"/>
	<path d="M89.6,225c6.2,29.8,23.7,55.3,49.1,71.9c25.4,16.6,55.8,22.4,85.6,16.2c29.7-6.2,55.6-23.5,71.9-49.1
		c16.3-25.5,22.1-55.9,16.2-85.6c-5.9-29.8-23.6-55.2-49.1-71.9c-25.5-16.7-55.9-22.4-85.5-16.2c-29.7,6.2-55.3,23.7-72,49.1
		C89.2,164.9,83.4,195.3,89.6,225"/>
	<g>
		<path class="st0" d="M239.7,113.1c0.4,4.4-1.7,8.8-6.1,12.9c-21.3-15.7-41.7-23.4-61.6-23.4c-4.3,0-8.5,0.3-12.5,1
			c6.3-2.6,12.9-4.7,19.7-6.1c17.8-3.7,35.9-2.8,52.8,2.4C235.7,103.2,239.3,107.9,239.7,113.1"/>
		<path class="st0" d="M217.5,296.9c22.4-20.6,32.8-64.7,39-91.1l1-4.1c3.2-13.4,8.9-23.4,14.9-29.5c22.5,35,19.5,71.1,13.8,93.7
			c-15.6,20.7-37.8,34.9-63.4,40.2c-7.3,1.5-14.6,2.3-21.9,2.3C206.3,305.8,211.8,302.1,217.5,296.9"/>
		<path class="st0" d="M258.2,147.1c9.1-7.6,16.4-13.5,21.6-17.2c11.2,12.3,19.4,27,24,43.3c-4.2-5.6-9.6-11-15.4-12.2
			c-5-1-10.2,0.4-15,3.8C269.1,158.9,264.1,152.9,258.2,147.1"/>
		<path class="st0" d="M96.4,196.9c10.4-27.8,48.3-39.2,62.6-43.4l0.6-0.2c4.7-1.4,11.4-2.5,19.2-3.9c18.4-3.1,41.1-7,54.8-17.2
			c5.6,4.2,11.3,9.1,17.1,14.6c-31,26.4-79,70.6-130.2,125.1c-11.9-13.6-20.2-30.2-24-48.4c-1.5-7.2-2.3-14.5-2.3-21.8
			C95.5,199,96.4,197,96.4,196.9"/>
		<path class="st0" d="M254.6,143.6c-5.8-5.4-11.5-10.3-17.1-14.7c5.2-5.1,7.6-10.5,7.1-16.3c-0.3-3.5-1.7-6.8-3.5-9.7
			c6.3,2.6,12.4,5.8,18.3,9.6c6.2,4.1,11.9,8.7,17,13.7C271,130.3,263.6,136.1,254.6,143.6"/>
		<path class="st0" d="M229.6,129.2c-12.9,8.9-34.2,12.5-51.5,15.4c-8,1.4-14.8,2.5-19.8,4l-0.6,0.2c-13.7,4.1-48.2,14.4-62.4,39.3
			c2-15.8,7.6-31,16.6-44.7c7.6-11.5,17.6-22.2,28.6-29.9C165.6,102.8,193.9,103.5,229.6,129.2"/>
		<path class="st0" d="M287.4,165.8c7.4,1.5,15.5,14,19.3,21.3c3.3,23.4-1.2,46.9-13,67.4c0.6-3.6,1-7.4,1.3-11.4
			c1.5-20-1.2-47.2-18.8-74.1C280.1,166.2,284,165.1,287.4,165.8"/>
	</g>
	<path class="st0" d="M254.5,150.3c5.9,5.8,10.9,11.7,15.1,17.7c-7.3,7-13.5,18.4-16.8,32.5l-1,4.1c-6.1,25.8-16.3,69.1-37.6,88.6
		c-8.8,8.1-17.4,12.3-25.1,14.5c-16.4-1.8-32.2-7.5-46.4-16.8c-6.9-4.5-13.1-9.7-18.6-15.4C175.7,220.6,223.8,176.3,254.5,150.3"/>
	<path class="st0" d="M230.4,233.4l2.9-0.8c1.7-0.5,2.9-1.1,2.9-3.6c0-2.1-0.6-5.9-3.1-5.9c-2.7,0-2.7,4.5-2.7,7L230.4,233.4
		L230.4,233.4z"/>
	<path class="st0" d="M195.7,231.8c0-9.1-0.3-17-6.5-17c-5,0-5.9,7.9-5.9,17c0,9.1-0.3,17,5.9,17
		C194.5,248.8,195.7,240.9,195.7,231.8"/>
	<path class="st0" d="M230.4,233.4l2.9-0.8c1.7-0.5,2.9-1.1,2.9-3.6c0-2.1-0.6-5.9-3.1-5.9c-2.7,0-2.7,4.5-2.7,7L230.4,233.4
		L230.4,233.4z"/>
	<path class="st0" d="M182.6,210.9h-0.1h0.2c3-4.6,8.6-6.8,14.1-6.8c12.5,0,20.2,10.8,20.2,25.3c0,17.2-11.7,27.4-26.1,27.4
		c-22.2,0-30.2-17.9-30.2-38.6c0-23.9,10.4-43.6,36.2-43.6c10.1,0,18.3,6.5,18.3,16.4c0,6.4-5,9.6-9.7,9.6c-7,0-9.2-5.8-10.2-10.9
		c-0.4-2.2,0.4-7-3.2-7c-7.5,0-8.7,14.7-9,20.1L182.6,210.9z"/>
	<path class="st0" d="M195.7,231.8c0-9.1-0.3-17-6.5-17c-5,0-5.9,7.9-5.9,17c0,9.1-0.3,17,5.9,17
		C194.5,248.8,195.7,240.9,195.7,231.8"/>
	<g>
		<path class="st0" d="M61.4,175.6c4.2,0.5,5.9,3.5,5.3,9l-0.5,4l2.3,0.3c2.9,0.3,4,0.3,4.3-2.1l2.7,0.3l-1.3,10.8l-2.7-0.3
			c0.2-2.4-0.8-2.7-3.7-3l-8.4-1c-2.9-0.3-4-0.3-4.3,2.1l-2.7-0.3l1.4-11.9C54.5,177.7,57.1,175.1,61.4,175.6z M63.7,187.1
			c0.4-3.6-0.6-5.5-3.2-5.8c-2.2-0.3-3.8,1.1-4.2,3.8c-0.2,1.9,0.4,2.3,2.5,2.5l4.7,0.6C63.6,187.8,63.6,187.5,63.7,187.1z"/>
		<path class="st0" d="M77.3,163.7c0.9-2.2-0.1-2.8-2.8-3.9l-7.8-3.3c-2.7-1.1-3.8-1.4-4.7,0.8l-2.5-1l4.2-10l2.4,1
			c-0.9,2.2,0.1,2.8,2.8,3.9l2,0.8l3.1-7.5l-2-0.8c-2.7-1.1-3.8-1.4-4.7,0.8l-2.4-1l4.2-10l2.5,1c-0.9,2.2,0.1,2.8,2.8,3.9l7.8,3.3
			c2.7,1.1,3.8,1.4,4.7-0.8l2.5,1l-4.2,10l-2.4-1c0.9-2.2-0.1-2.8-2.8-3.9l-3.4-1.4l-3.1,7.5l3.4,1.4c2.7,1.1,3.8,1.4,4.7-0.8l2.4,1
			l-4.2,10L77.3,163.7z"/>
		<path class="st0" d="M87.8,110.4c-1.4,1.9-0.6,2.7,1.7,4.5l6.8,5.1c2.3,1.8,3.3,2.2,4.8,0.4l2.2,1.6l-6.5,8.7l-2.2-1.6
			c1.4-1.9,0.6-2.7-1.7-4.5l-6.8-5.1c-2.3-1.8-3.3-2.3-4.8-0.4l-2.2-1.6l6.5-8.7L87.8,110.4z"/>
		<path class="st0" d="M112.2,111.7l-1.7-2.1c1.8-1.6,1.2-2.5-0.7-4.7l-5.4-6.5c-1.9-2.2-2.7-3-4.6-1.5l-1.7-2.1l8.3-7l1.7,2.1
			c-1.8,1.6-1.2,2.5,0.6,4.8l6.1,7.2c1.4,1.7,2,1.9,3.8,0.5c2.3-1.9,3.3-5.4,2.4-9.7l2.4-0.5l2.4,8L112.2,111.7z"/>
		<path class="st0" d="M138,91.8l-1.1-2.5c2-1.3,1.9-2.6,1.9-5l-0.6-16.8l4.5-2.1l12.5,12.2c1.4,1.4,2.2,2.1,4.1,1.4l1.1,2.5
			l-9.9,4.5l-1.1-2.4c0.1,0,0.1-0.1,0.2-0.1c1.4-0.6,1.9-1.2,1.5-2.1c-0.1-0.3-0.3-0.6-0.6-0.8l-2.3-2.3l-6.4,2.9l0.4,3.1
			c0,0.2,0.1,0.5,0.2,0.7c0.4,0.9,1.4,1,2.9,0.4l1.1,2.4L138,91.8z M146.1,76.5l-4.7-5l0.4,7L146.1,76.5z"/>
		<path class="st0" d="M171.5,75.6c2.3-0.4,2.4-1.5,2-4.4l-1.2-8.4c-0.4-2.9-0.8-3.9-3.1-3.7l-0.4-2.7l11-1.6
			c8.4-1.2,13.5,2.1,14.4,9.1c1,7-2.9,11.5-11.3,12.7l-11,1.6L171.5,75.6z M179.4,71.7c0.3,2.2,0.7,2.7,2.9,2.4
			c4.4-0.6,6.7-4,5.9-9.3c-0.7-5.3-3.9-7.9-8.3-7.2c-2.3,0.3-2.5,1-2.2,3.1L179.4,71.7z"/>
		<path class="st0" d="M209.7,72.4c2.4,0.3,2.7-0.8,3.1-3.7l1.2-8.4c0.4-2.9,0.4-4-2-4.4l0.4-2.7l18.1,2.6l2,7l-2.2,0.8
			c-1.8-3.6-4.3-5.7-7.6-6.2c-2.2-0.3-2.5,0.3-2.8,2.4l-0.5,3.1l1,0.2c2.3,0.3,3-0.3,3.5-2.9l2.3,0.3l-1.4,9.8l-2.3-0.3
			c0.1-2.6-0.7-3.8-2.5-4.1l-1-0.2l-0.7,5.1c-0.3,2.1-0.1,2.8,2.1,3.1c3.2,0.5,7-1.1,9.9-4.6l1.9,1.4l-4.4,7L209.3,75L209.7,72.4z"
			/>
		<path class="st0" d="M243.8,82l1.1-2.5c2.2,0.9,2.8,0,4-2.7l3.4-7.7c1.2-2.7,1.5-3.7-0.7-4.7l1.1-2.5l9.9,4.3l-1.1,2.5
			c-2.2-0.9-2.8,0-4,2.7l-3.8,8.6c-0.9,2-0.8,2.7,1.2,3.6c2.7,1.2,6.3,0.5,9.7-2.1l1.5,1.9l-6.1,5.7L243.8,82z"/>
		<path class="st0" d="M299.5,98.1c-2.7,3.3-6.1,3.2-10.4-0.3l-3.1-2.5l-1.4,1.8c-1.8,2.3-2.4,3.2-0.6,4.8l-1.7,2.1l-8.5-6.8
			l1.7-2.1c1.9,1.4,2.7,0.7,4.6-1.5l5.3-6.6c1.8-2.3,2.4-3.2,0.6-4.8l1.7-2.1l9.3,7.5C301.4,91.1,302.2,94.7,299.5,98.1z
			 M288.5,93.8c2.8,2.3,5,2.4,6.6,0.4c1.4-1.7,1.1-3.8-1-5.5c-1.5-1.2-2.2-0.8-3.5,0.8l-3,3.7C288,93.4,288.3,93.6,288.5,93.8z"/>
		<path class="st0" d="M301.2,117.8c1.4,1.9,2.4,1.5,4.8-0.2l6.9-4.9c2.4-1.7,3.2-2.5,1.9-4.4l2.2-1.5l6.2,8.9l-2.2,1.5
			c-1.4-1.9-2.4-1.5-4.8,0.2l-1.8,1.2l4.7,6.7l1.8-1.2c2.4-1.7,3.2-2.5,1.9-4.4l2.2-1.5l6.2,8.9l-2.2,1.5c-1.4-1.9-2.4-1.5-4.8,0.2
			l-6.9,4.9c-2.4,1.7-3.2,2.5-1.9,4.4l-2.2,1.5l-6.2-8.9l2.2-1.5c1.4,1.9,2.4,1.5,4.8-0.2l3-2.1l-4.7-6.7l-3,2.1
			c-2.4,1.7-3.2,2.5-1.9,4.4l-2.2,1.5l-6.2-8.9L301.2,117.8z"/>
		<path class="st0" d="M340.6,155.1c-0.9-2.2-2-2-4.7-0.9l-7.9,3c-2.7,1.1-3.7,1.6-2.9,3.9l-2.5,1l-3.9-10.1l2.5-1
			c0.9,2.2,2,2,4.7,0.9l7.9-3c2.7-1.1,3.7-1.6,2.9-3.8l2.5-1l3.9,10.1L340.6,155.1z"/>
		<path class="st0" d="M326.5,173.9l2.7-0.4c0.6,2.3,2,2.6,4.2,3.3l16.2,4.4l0.6,4.9l-15.4,8.4c-1.7,0.9-2.6,1.5-2.6,3.5l-2.7,0.4
			l-1.4-10.8l2.6-0.3c0,0.1,0,0.2,0,0.2c0.2,1.5,0.6,2.2,1.5,2c0.3,0,0.6-0.1,0.9-0.3l2.9-1.5l-0.9-7l-3.1-0.5c-0.2,0-0.5-0.1-0.7,0
			c-1,0.1-1.4,1-1.2,2.7l-2.6,0.3L326.5,173.9z M338.8,186.2l6.2-3l-6.8-1.7L338.8,186.2z"/>
	</g>
	<g>
		<g>
			<path class="st0" d="M267.5,215.6c-2.5,0-4.3,1.1-5.7,2.6c-0.1-0.3-0.3-0.7-0.5-1l-1.2-2.3l-17,5v9.3h3.1c0.3,0,0.5,0,0.5,0
				c0.1,0.3,0.4,1.1,0.4,4v10.8l-3.1,0.4v10.2h23.6v-10.2l-3.1-0.4v-3.2c0-1.8,0.4-5.3,0.9-7.3c0.9,0.3,1.9,0.5,3.1,0.5
				c4.2,0,7.2-3.8,7.2-9.2C275.8,219.3,272.5,215.6,267.5,215.6z"/>
			<path class="st0" d="M297.1,226.5c-0.2-0.8-0.3-1.1-0.3-1.5c0-2.8-1.1-9.3-11.4-9.3c-5.7,0-16.9,4.4-16.9,14.6
				c0,3.8,1.1,6.5,2.7,8.6c-2.2,1.3-3.6,3.9-3.6,7c0,3.7,1.8,9.8,14.2,9.8c10.6,0,16.6-5.5,16.6-15
				C298.4,231.5,297.6,228.5,297.1,226.5z"/>
			<path class="st0" d="M172.5,171.7c-0.6-0.7-1.6-1.2-2.6-1.2c-1.6,0-2.8,1-4.3,2.6c-5,5.3-11.8,8.1-19.7,8.1
				c-10.3,0-21.1-4.7-29.7-13c-0.7-0.7-1.6-1-2.5-1c-4.2,0-5.3,6.7-5.3,6.8l0,33.8l2.7,0.4c10.2,1.5,19,1.2,27-1
				c-8.6,7.7-28.1,28.8-27.8,48.9c0,3.7,2.3,4.1,3.3,4.1c1.2,0,2-0.7,2.6-1.1c0.1-0.1,0.3-0.3,0.5-0.4c2.8-2.1,7.3-3.2,12.4-3.2
				c4.2,0,8.4,0.8,11.5,2.3c0.6,0.3,1.3,0.6,2.1,0.6c1,0,1.9-0.4,2.5-1.1c1.1-1.2,1-2.7,0.9-3.7c-1.4-14.6,1.8-30.5,8-39.7l0.9-1.4
				c5.3-7.8,16.3-24.1,18.3-37.5C173.5,173.7,173.3,172.5,172.5,171.7z"/>
			<path class="st0" d="M250.9,236.2l-0.2-2.6c-0.1-1.7-0.4-3.3-0.7-4.8l-0.1-2.9l-0.5,0.8c-2.5-6.9-8.3-11.2-15.6-11.2
				c-10.9,0-18.6,8.6-18.6,21c0,9.5,5.6,19.1,18,19.1c7.1,0,13.6-3.6,17-9.3l0.5-0.8l-0.4-9.2L250.9,236.2z M237.7,242.1
				c-1.2,0-2-0.8-2.5-1.7l6.1-1.6C239.5,240.9,238.2,242,237.7,242.1z"/>
			<path class="st0" d="M210.3,206.3c-0.6-0.9-1.3-1.9-1.9-2.7c5.4-1.1,10.1-5.3,10.1-12.4c0-11.1-9.2-19.6-21.5-19.6
				c-24.6,0-39.3,17.5-39.3,46.7c0,26.5,12.2,41.7,33.4,41.7c17.2,0,29.2-12.6,29.2-30.6C220.2,220.5,214.2,212,210.3,206.3z"/>
		</g>
		<g>
			<path d="M237.7,245.3c-3.8,0-6.1-3.5-6.5-7l16.4-4.4c-0.5-8-5.1-15.1-13.8-15.1c-9.3,0-15.4,7.2-15.4,17.9
				c0,8.3,4.8,15.9,14.8,15.9c5.7,0,11.3-2.7,14.3-7.8l-3.2-3.9C242.7,243.4,240.9,245.3,237.7,245.3z M230.5,230.2c0-2.5,0-7,2.7-7
				c2.5,0,3.1,3.8,3.1,5.9c0,2.5-1.2,3.1-2.9,3.6l-2.9,0.8L230.5,230.2L230.5,230.2z"/>
			<path d="M264.7,251.6h-17.3v-4.4l3.1-0.4v-13.6c0-4.8-0.6-7.2-4.1-7.2v-3.8l12.3-3.6c1.4,2.7,1.8,5.9,2,9h0.1
				c1.2-3.7,2.8-8.9,6.8-8.9c3.5,0,5.1,2.7,5.1,6c0,3.4-1.5,6.1-4,6.1c-1.8,0-3.3-0.7-4.1-1c-2.2-0.8-3,9-3,11v5.9l3.1,0.4
				L264.7,251.6L264.7,251.6z"/>
			<path d="M293.7,225c0,2.7-2.3,4-4.8,4c-3,0-5.1-2.4-5.6-5.3c-1.3,0-2.2,0.7-2.2,2.8c0,5,14.2,1.4,14.2,14.1
				c0,9.5-6.9,11.9-13.5,11.9c-4,0-11.1-0.5-11.1-6.7c0-2.8,1.5-4.9,4.3-4.9c4.3,0,5,3.9,5.8,6.7c0.2,0.7,0.8,0.9,1.4,0.9
				c2.3,0,3.9-0.9,3.9-2.4c0-5.7-14.5-3.5-14.5-15.9c0-7.9,9.3-11.4,13.8-11.4C290.5,218.9,293.7,220.6,293.7,225"/>
			<path d="M196.9,204.1c-5.5,0-11.2,2.2-14.1,6.8h-0.1h-0.1h0.1l0.6-8c0.3-5.4,1.5-20.1,9-20.1c3.6,0,2.8,4.8,3.2,7
				c1,5.1,3.2,10.9,10.2,10.9c4.7,0,9.7-3.1,9.7-9.6c0-9.9-8.3-16.4-18.3-16.4c-25.8,0-36.2,19.7-36.2,43.6c0,20.7,8,38.6,30.2,38.6
				c14.4,0,26.1-10.2,26.1-27.4C217.2,214.9,209.5,204.1,196.9,204.1z M189.3,248.8c-6.2,0-5.9-7.9-5.9-17c0-9.1,0.9-17,5.9-17
				c6.2,0,6.5,7.9,6.5,17C195.8,240.9,194.5,248.8,189.3,248.8z"/>
			<path d="M111.7,174.4v30.7c17.2,2.5,37.8,0.9,52.3-20.4c0.6-0.9,1-0.3,0.6,0.5c-4.1,8.3-13.7,15.9-22,22.4
				c-8,6.3-29.4,28.7-29.1,48.4c0,1.5,0.1,1.1,1.4,0.1c6.5-4.8,19.2-5,27-1.2c1.1,0.5,1.2,0.4,1-1.1c-1.5-15.3,1.9-32,8.5-41.7
				c4.5-6.7,16.7-24,18.8-37.6c0.2-1.4-0.5-1.2-2.3,0.7c-13.8,14.6-38.7,14.2-54.8-1.2C112.2,173,111.8,173.5,111.7,174.4"/>
		</g>
	</g>
	<g>
		
			<ellipse transform="matrix(8.248056e-02 -0.9966 0.9966 8.248056e-02 -25.474 284.1146)" class="st0" cx="141.6" cy="155.9" rx="29.5" ry="29.5"/>
		<g>
			<polygon points="141.5,127.5 142.5,130.6 145.9,130.6 143.1,132.6 144.1,135.6 141.5,133.8 138.9,135.6 139.9,132.6 137.2,130.6 
				140.5,130.6 			"/>
			<polygon points="161.2,138.9 162.2,142 165.5,142 162.8,144 163.8,147.1 161.2,145.2 158.5,147.1 159.6,144 156.8,142 160.2,142 
							"/>
			<polygon points="152.7,130.1 153.7,133.2 157.1,133.2 154.4,135.2 155.4,138.3 152.7,136.4 150.1,138.3 151.1,135.2 148.4,133.2 
				151.7,133.2 			"/>
			<polygon points="164.4,149.7 165.4,152.8 168.7,152.8 166,154.8 167,157.9 164.4,156 161.8,157.9 162.8,154.8 160,152.8 
				163.3,152.8 			"/>
			<polygon points="163,161.1 164,164.3 167.3,164.3 164.6,166.3 165.6,169.3 163,167.4 160.4,169.3 161.3,166.2 158.6,164.3 
				162,164.3 			"/>
			<polygon points="156.7,170.3 157.6,173.4 161,173.4 158.3,175.4 159.3,178.4 156.7,176.5 154,178.4 155,175.4 152.3,173.4 
				155.7,173.4 			"/>
			<polygon points="146.7,175.4 147.7,178.5 151.1,178.5 148.4,180.5 149.4,183.6 146.7,181.7 144.1,183.6 145.1,180.5 142.4,178.5 
				145.7,178.5 			"/>
			<polygon points="121.5,137.9 120.5,141 117.2,141 119.9,143 118.9,146.1 121.5,144.2 124.2,146.1 123.2,143 125.9,141 122.5,141 
							"/>
			<polygon points="129.8,130.1 128.8,133.2 125.4,133.2 128.1,135.2 127.1,138.3 129.8,136.4 132.4,138.3 131.4,135.2 134.1,133.2 
				130.8,133.2 			"/>
			<polygon points="117.7,148.3 116.7,151.4 113.4,151.4 116.1,153.4 115.1,156.5 117.7,154.6 120.3,156.5 119.4,153.4 122.1,151.4 
				118.7,151.4 			"/>
			<polygon points="118.7,159.7 117.7,162.9 114.4,162.9 117.1,164.8 116.1,167.9 118.7,166 121.4,167.9 120.4,164.8 123.1,162.9 
				119.7,162.9 			"/>
			<polygon points="125,169.1 124.1,172.2 120.7,172.2 123.4,174.2 122.4,177.2 125,175.3 127.7,177.2 126.7,174.2 129.4,172.2 
				126.1,172.2 			"/>
			<polygon points="135,175 134,178.1 130.6,178.1 133.3,180.1 132.4,183.2 134.9,181.3 137.6,183.2 136.6,180.1 139.3,178.1 
				136,178.1 			"/>
		</g>
	</g>
</g>
</svg>
